<svg width="479" height="150" viewBox="0 0 479 150" fill="none" xmlns="http://www.w3.org/2000/svg">
<g clip-path="url(#clip0_973_8924)">
<path d="M59.8832 53.5227V69.5455H98.5506C97.5241 78.4091 94.4444 85.2273 89.6537 89.6591C84.1787 95.1136 75.2817 101.25 59.8832 101.25C36.2721 101.25 17.7939 82.1591 17.7939 58.6364C17.7939 35.1136 35.9299 16.0227 59.8832 16.0227C72.5442 16.0227 82.1255 21.1364 88.9693 27.6136L100.262 16.3636C90.6803 7.15909 77.6771 0 59.8832 0C27.3752 0 0 26.25 0 58.6364C0 91.0227 27.3752 117.273 59.8832 117.273C77.3349 117.273 90.6803 111.477 100.946 100.909C111.554 90.3409 114.976 75.3409 114.976 63.4091C114.976 59.6591 114.634 56.25 114.291 53.5227H59.8832Z" fill="white"/>
<path d="M162.882 40.2266C142.008 40.2266 124.557 56.2493 124.557 78.0675C124.557 99.8857 141.666 115.908 162.882 115.908C184.098 115.908 201.207 100.227 201.207 78.4084C201.207 56.2493 184.098 40.2266 162.882 40.2266ZM162.882 101.249C151.247 101.249 141.324 91.7038 141.324 78.4084C141.324 64.772 151.247 55.5675 162.882 55.5675C174.516 55.5675 184.44 64.772 184.44 78.4084C184.44 91.7038 174.516 101.249 162.882 101.249Z" fill="white"/>
<path d="M350.06 48.7493H349.376C345.611 44.3175 338.425 40.2266 329.186 40.2266C310.024 40.2266 293.599 56.5902 293.599 78.0675C293.599 99.2038 310.024 115.908 329.186 115.908C338.425 115.908 345.611 111.817 349.376 107.386H350.06V112.84C350.06 127.158 342.19 134.999 329.871 134.999C319.605 134.999 313.446 127.84 310.708 121.363L296.336 127.499C300.442 137.386 311.735 149.999 330.213 149.999C349.718 149.999 366.485 138.408 366.485 110.454V42.272H350.744V48.7493H350.06ZM330.897 101.249C319.263 101.249 310.708 91.3629 310.708 78.4084C310.708 65.1129 319.605 55.5675 330.897 55.5675C342.19 55.5675 351.086 65.4538 351.086 78.7493C351.429 91.7038 342.532 101.249 330.897 101.249Z" fill="white"/>
<path d="M248.088 40.2266C227.214 40.2266 209.763 56.2493 209.763 78.0675C209.763 99.8857 226.872 115.908 248.088 115.908C269.304 115.908 286.413 100.227 286.413 78.4084C286.413 56.2493 269.304 40.2266 248.088 40.2266ZM248.088 101.249C236.453 101.249 226.53 91.7038 226.53 78.4084C226.53 64.772 236.453 55.5675 248.088 55.5675C259.722 55.5675 269.646 64.772 269.646 78.4084C269.646 91.7038 259.722 101.249 248.088 101.249Z" fill="white"/>
<path d="M379.146 1.70508H395.572V116.251H379.146V1.70508Z" fill="white"/>
<path d="M446.215 101.249C437.66 101.249 431.843 97.4993 427.737 89.6584L478.723 68.8629L477.012 64.4311C473.932 55.9084 464.009 40.2266 444.504 40.2266C424.999 40.2266 408.574 55.5675 408.574 78.0675C408.574 99.2038 424.657 115.908 446.215 115.908C463.667 115.908 473.59 105.34 478.039 99.2038L465.035 90.6811C460.587 97.1584 454.77 101.249 446.215 101.249ZM445.189 54.5447C452.032 54.5447 457.85 57.9538 459.56 62.7266L425.342 77.0447C424.999 61.3629 436.634 54.5447 445.189 54.5447Z" fill="white"/>
</g>
<defs>
<clipPath id="clip0_973_8924">
<rect width="478.723" height="150" fill="white"/>
</clipPath>
</defs>
</svg>
