<svg width="493" height="220" viewBox="0 0 493 220" fill="none" xmlns="http://www.w3.org/2000/svg">
<g clip-path="url(#clip0_1076_8899)">
<path d="M387.345 185C428.28 185 461.571 151.372 461.571 110C461.571 68.6282 428.28 35.0001 387.345 35.0001C346.409 35.0001 313.118 68.6282 313.118 110C313.118 151.3 346.409 185 387.345 185ZM387.345 83.2554C401.919 83.2554 413.849 95.2296 413.849 110C413.849 124.771 401.99 136.745 387.345 136.745C372.771 136.745 360.912 124.771 360.912 110C360.912 95.2296 372.771 83.1837 387.345 83.2554ZM107.227 185C148.162 185 181.453 151.372 181.453 110C181.453 68.6282 148.162 35.0001 107.227 35.0001C66.2913 34.9284 33 68.5565 33 110C33 151.3 66.2913 185 107.227 185ZM107.227 83.2554C121.801 83.2554 133.731 95.2296 133.731 110C133.731 124.771 121.872 136.745 107.227 136.745C92.6528 136.745 80.7937 124.771 80.7937 110C80.7937 95.2296 92.6528 83.1837 107.227 83.2554ZM247.25 81.5345L224.46 35.9322H171.094L220.96 135.669V182.634H273.612V135.669L323.477 35.9322H270.111L247.25 81.5345Z" fill="white"/>
</g>
<defs>
<clipPath id="clip0_1076_8899">
<rect width="428.571" height="150" fill="white" transform="translate(33 35)"/>
</clipPath>
</defs>
</svg>
