<svg width="401" height="562" viewBox="0 0 401 562" fill="none" xmlns="http://www.w3.org/2000/svg">
<g opacity="0.3">
<line x1="400" y1="0.562622" y2="0.562622" stroke="#165E67"/>
<line x1="400" y1="80.5626" y2="80.5626" stroke="#165E67"/>
<line x1="400" y1="160.563" y2="160.563" stroke="#165E67"/>
<line x1="400" y1="240.563" y2="240.563" stroke="#165E67"/>
<line x1="400" y1="320.563" y2="320.563" stroke="#165E67"/>
<line x1="400" y1="400.563" x2="-1.38457e-08" y2="400.563" stroke="#165E67"/>
<line x1="400" y1="480.563" x2="-1.38457e-08" y2="480.563" stroke="#165E67"/>
<line x1="400" y1="560.563" x2="-1.38457e-08" y2="560.563" stroke="#165E67"/>
<line x1="0.5" y1="1.33956e-07" x2="0.499996" y2="560" stroke="#165E67"/>
<line x1="80.5" y1="6.6955e-08" x2="80.5" y2="560" stroke="#165E67"/>
<line x1="160.5" y1="1.91259e-08" x2="160.5" y2="560" stroke="#165E67"/>
<line x1="240.5" y1="1.91259e-08" x2="240.5" y2="560" stroke="#165E67"/>
<line x1="320.5" y1="1.91259e-08" x2="320.5" y2="560" stroke="#165E67"/>
<line x1="400.5" y1="1.91259e-08" x2="400.5" y2="560" stroke="#165E67"/>
</g>
</svg>
