<svg width="450" height="150" viewBox="0 0 450 150" fill="none" xmlns="http://www.w3.org/2000/svg">
<path d="M375.747 0C372.984 0 369.669 0 366.906 0.5505L350.882 28.6005C358.065 24.1995 366.906 22.0005 375.747 22.0005C404.481 22.0005 428.241 45.6495 428.241 74.25C428.241 102.851 404.481 126.499 375.747 126.499C347.013 126.499 323.805 103.399 323.253 74.8005L306.677 102.851C317.727 129.799 344.804 148.5 375.195 148.5C416.085 148.5 449.792 114.95 449.792 74.25C450.345 33.5505 416.637 0 375.747 0Z" fill="#BF3078"/>
<path d="M150.3 77.55L163.008 55.5495L191.742 104.501L224.895 47.85L258.048 104.501L314.964 8.25C317.727 3.3 323.253 0 329.331 0H345.356L258.05 148.5L224.897 91.8495L191.742 148.5L150.3 77.55Z" fill="#802050"/>
<path d="M174.06 0L86.754 148.5L0 0H16.0245C22.1025 0 27.6285 3.3 30.3915 8.25L86.754 105.049L143.669 8.25C146.432 3.3 151.956 0 158.036 0H174.06Z" fill="#26134D"/>
</svg>
